<svg width="443" height="457" viewBox="0 0 443 457" fill="none" xmlns="http://www.w3.org/2000/svg">
<g clip-path="url(#clip0)">
<path d="M221.5 457C264.163 457 298.748 455.019 298.748 452.575C298.748 450.131 264.163 448.15 221.5 448.15C178.837 448.15 144.252 450.131 144.252 452.575C144.252 455.019 178.837 457 221.5 457Z" fill="#A9C5FB"/>
<path d="M283.386 448.901C293.073 437.897 338.694 383.734 306.269 374.805C281.916 368.098 279.202 404.995 280.02 429.756C276.12 413.073 268.552 393.586 255.256 402.184C236.093 414.576 271.999 441.998 281.379 448.73C281.533 450.099 281.635 450.86 281.635 450.86C281.635 450.86 282.019 450.441 282.705 449.67C283.241 450.045 283.539 450.246 283.539 450.246C283.539 450.246 283.489 449.761 283.386 448.901Z" fill="#A9C5FB"/>
<path d="M443 5.12582H0.189072V288.249H443V5.12582Z" fill="#E6E6E6"/>
<path d="M430.338 40.6365H12.8512V271.499H430.338V40.6365Z" fill="white"/>
<path d="M403.298 64.2944H313.324V114.82H403.298V64.2944Z" fill="#E6E6E6"/>
<path d="M403.298 130.805H313.324V181.331H403.298V130.805Z" fill="#E6E6E6"/>
<path d="M403.298 197.316H313.324V247.842H403.298V197.316Z" fill="#E6E6E6"/>
<path d="M129.865 64.2944H39.8911V114.82H129.865V64.2944Z" fill="#E6E6E6"/>
<path d="M129.865 130.805H39.8911V181.331H129.865V130.805Z" fill="#E6E6E6"/>
<path d="M129.865 197.316H39.8911V247.842H129.865V197.316Z" fill="#E6E6E6"/>
<path d="M226.625 94.2234C236.73 94.2234 244.921 86.0457 244.921 75.9581C244.921 65.8704 236.73 57.6927 226.625 57.6927C216.521 57.6927 208.329 65.8704 208.329 75.9581C208.329 86.0457 216.521 94.2234 226.625 94.2234Z" fill="#2F2E41"/>
<path d="M291.829 17.8587L297.941 12.7405C298.702 12.1034 299.323 11.3165 299.766 10.429C300.209 9.54141 300.463 8.5723 300.514 7.58214C300.564 6.59197 300.41 5.60202 300.06 4.67411C299.71 3.74619 299.173 2.90025 298.481 2.1891V2.1891C297.638 1.32338 296.592 0.682558 295.437 0.325346C294.282 -0.0318664 293.056 -0.0940443 291.871 0.144507C290.686 0.383058 289.58 0.914714 288.654 1.69075C287.728 2.4668 287.012 3.46241 286.571 4.58636L283.654 12.0294L260.297 52.0577L248.425 84.5078L257.962 95.9722L270.808 56.3325L291.829 17.8587Z" fill="#A0616A"/>
<path d="M161.811 17.8587L155.699 12.7405C154.938 12.1034 154.317 11.3165 153.874 10.429C153.431 9.54142 153.177 8.5723 153.126 7.58214C153.076 6.59197 153.23 5.60202 153.58 4.67411C153.93 3.74619 154.467 2.90024 155.159 2.18909V2.18909C156.002 1.32338 157.048 0.682561 158.203 0.325349C159.358 -0.0318632 160.584 -0.094046 161.769 0.144505C162.954 0.383056 164.06 0.914713 164.986 1.69075C165.912 2.46679 166.628 3.4624 167.069 4.58636L169.986 12.0294L193.342 52.0577L206.383 84.8964L195.678 95.9722L182.832 56.3325L161.811 17.8587Z" fill="#A0616A"/>
<path d="M227.404 67.0197C232.564 67.0197 236.746 62.8439 236.746 57.6927C236.746 52.5416 232.564 48.3657 227.404 48.3657C222.244 48.3657 218.061 52.5416 218.061 57.6927C218.061 62.8439 222.244 67.0197 227.404 67.0197Z" fill="#2F2E41"/>
<path d="M228.182 349.55L219.813 348.967L220.202 235.1L240.834 240.152L228.182 349.55Z" fill="#A0616A"/>
<path d="M218.794 377.859C217.138 377.822 215.532 377.281 214.192 376.309C212.852 375.337 211.841 373.98 211.294 372.418C209.474 367.079 210.415 361.999 213.585 357.128L212.549 349.89C212.385 348.747 212.47 347.581 212.798 346.473C213.125 345.365 213.688 344.34 214.447 343.469L219.813 337.308V345.081C223.741 341.651 226.162 341.527 229.545 344.303L226.431 360.237L227.191 368.966C227.291 370.116 227.147 371.274 226.767 372.364C226.388 373.454 225.781 374.451 224.989 375.291C224.196 376.131 223.234 376.793 222.166 377.236C221.099 377.678 219.95 377.891 218.794 377.859V377.859Z" fill="#2F2E41"/>
<path d="M241.612 118.512L208.913 117.735C213.547 113.239 220.182 95.9974 219.035 90.9201H234.995C233.079 96.1454 236.787 113.895 241.612 118.512Z" fill="#A0616A"/>
<path d="M250.176 178.361L205.021 165.147L206.578 145.716L202.685 125.896C203.082 123.746 192.804 97.1866 193.342 95.195C195.492 87.238 201.123 88.3376 205.215 82.5647C205.88 81.6274 211.066 88.2197 214.42 92.6772C214.818 93.3638 215.092 93.8292 215.28 94.1447C216.542 96.2715 217.09 98.7451 216.846 101.205L216.842 101.248C215.004 107.598 219.226 104.995 225.847 105.105C231.463 105.198 236.552 109.641 236.552 104.033C236.543 103.715 236.528 103.383 236.513 103.042C236.402 100.172 237.084 97.3266 238.486 94.8181C238.573 94.661 238.159 95.3173 240.277 91.7117C244.076 86.3488 249.307 79.2228 249.592 80.2329C250.792 84.4851 256.967 88.0575 259.13 95.5836C259.462 96.742 257.457 103.774 257.573 104.911C258.439 113.434 256.794 118.124 256.015 124.73C251.178 142.174 249.206 160.286 250.176 178.361V178.361Z" fill="#A9C5FB"/>
<path d="M243.948 244.815L218.256 237.043L217.867 213.725L197.624 174.863L205.41 162.038L249.787 173.697C252.815 193.068 249.478 217.986 243.948 244.815Z" fill="#0D0C22"/>
<path d="M231.881 213.726H217.866L191.786 177.195L201.128 169.422L231.881 213.726Z" fill="#2F2E41"/>
<path d="M238.498 213.337H215.212C209.688 213.346 204.289 211.698 199.714 208.609C189.507 201.72 186.239 188.178 191.785 177.195L238.498 179.527V213.337Z" fill="#2F2E41"/>
<path d="M218.124 187.142L197.624 186.522C197.548 186.327 197.475 186.132 197.406 185.936C194.679 178.184 198.779 169.758 206.364 166.572C207.128 166.251 207.904 165.955 208.696 165.682C210.525 165.045 212.479 164.85 214.397 165.113C216.316 165.377 218.145 166.091 219.733 167.197C221.322 168.303 222.625 169.769 223.536 171.475C224.446 173.182 224.939 175.079 224.972 177.012C224.993 178.569 224.896 180.126 224.682 181.668C224.454 183.226 223.66 184.646 222.45 185.656C221.24 186.666 219.7 187.195 218.124 187.142V187.142Z" fill="#A0616A"/>
<path d="M206.967 249.479H198.792L197.624 183.413L220.592 183.024L206.967 249.479Z" fill="#A0616A"/>
<path d="M197.773 278.509C196.117 278.473 194.512 277.932 193.171 276.96C191.831 275.988 190.82 274.63 190.274 273.069C188.453 267.73 189.394 262.65 192.564 257.779L191.528 250.541C191.365 249.397 191.449 248.232 191.777 247.124C192.104 246.016 192.667 244.991 193.426 244.119L198.792 237.959V245.731C202.72 242.302 205.142 242.178 208.524 244.954L205.41 260.888L206.17 269.617C206.27 270.767 206.126 271.924 205.746 273.014C205.367 274.104 204.761 275.102 203.968 275.942C203.175 276.781 202.213 277.444 201.146 277.887C200.078 278.329 198.929 278.541 197.773 278.509V278.509Z" fill="#2F2E41"/>
<path d="M227.209 96.7495C236.024 96.7495 243.169 89.6158 243.169 80.8159C243.169 72.016 236.024 64.8823 227.209 64.8823C218.395 64.8823 211.249 72.016 211.249 80.8159C211.249 89.6158 218.395 96.7495 227.209 96.7495Z" fill="#A0616A"/>
<path d="M241.223 73.8207C241.223 81.9766 233.822 70.323 225.652 70.323C217.483 70.323 211.638 81.9766 211.638 73.8207C211.638 69.904 213.197 66.1478 215.971 63.3783C218.745 60.6088 222.508 59.0529 226.431 59.0529C230.354 59.0529 234.116 60.6088 236.89 63.3783C239.665 66.1478 241.223 69.904 241.223 73.8207V73.8207Z" fill="#2F2E41"/>
<path d="M442.811 4.87521H0V23.6561H442.811V4.87521Z" fill="#A9C5FB"/>
<path d="M13.9797 17.9579C15.9054 17.9579 17.4664 16.3994 17.4664 14.477C17.4664 12.5545 15.9054 10.9961 13.9797 10.9961C12.0541 10.9961 10.493 12.5545 10.493 14.477C10.493 16.3994 12.0541 17.9579 13.9797 17.9579Z" fill="white"/>
<path d="M27.2144 17.9579C29.14 17.9579 30.7011 16.3994 30.7011 14.477C30.7011 12.5545 29.14 10.9961 27.2144 10.9961C25.2887 10.9961 23.7277 12.5545 23.7277 14.477C23.7277 16.3994 25.2887 17.9579 27.2144 17.9579Z" fill="white"/>
<path d="M40.449 17.9579C42.3747 17.9579 43.9357 16.3994 43.9357 14.477C43.9357 12.5545 42.3747 10.9961 40.449 10.9961C38.5234 10.9961 36.9623 12.5545 36.9623 14.477C36.9623 16.3994 38.5234 17.9579 40.449 17.9579Z" fill="white"/>
</g>
<defs>
<clipPath id="clip0">
<rect width="443" height="457" fill="white"/>
</clipPath>
</defs>
</svg>
