<svg width="286" height="239" viewBox="0 0 286 239" fill="none" xmlns="http://www.w3.org/2000/svg">
<g clip-path="url(#clip0)">
<path d="M62.0834 149.356L66.967 152.163C67.4611 152.447 68.0113 152.62 68.579 152.669C69.1468 152.719 69.7185 152.644 70.2544 152.45C70.7902 152.256 71.2772 151.947 71.6815 151.545C72.0858 151.143 72.3975 150.658 72.5951 150.123V150.123C72.8077 149.548 72.8822 148.93 72.8127 148.321C72.7433 147.711 72.5317 147.127 72.1951 146.614C71.8584 146.101 71.4061 145.674 70.8746 145.368C70.343 145.062 69.747 144.885 69.1345 144.851L63.2206 144.526L45.4057 139.133L42.5337 128.377L35.0233 132.596L40.1873 144.825L62.0834 149.356Z" fill="#FFB8B8"/>
<path d="M38.7995 93.53C37.6698 94.811 37.8737 96.3518 38.6965 97.6028C39.5193 98.8537 40.8885 99.8945 42.0867 100.998C42.8565 101.707 43.5687 102.46 43.9135 103.313C44.1034 103.749 44.1655 104.23 44.0927 104.7C44.0198 105.17 43.8148 105.61 43.5018 105.968C42.7171 106.897 41.2555 107.526 39.8294 108.064C35.7513 109.595 31.5435 110.754 27.257 111.527C30.8681 107.307 32.6758 102.554 32.411 97.9759C32.3554 97.0151 32.2127 96.0454 32.5482 95.0824C32.7786 94.5044 33.1429 93.9893 33.6111 93.5795C34.0793 93.1698 34.638 92.877 35.2414 92.7253C36.6767 92.3131 38.5673 92.7208 38.7874 93.6615" fill="#2F2E41"/>
<path d="M7.86306 228.962L13.0304 229.187L23.2293 182.067L14.3784 182.447L7.86306 228.962Z" fill="#FFB8B8"/>
<path d="M59.5352 218.85L55.2665 221.097L28.5656 181.474L37.069 177.728L59.5352 218.85Z" fill="#FFB8B8"/>
<path d="M29.7729 108.362C34.287 108.362 37.9464 104.702 37.9464 100.187C37.9464 95.6718 34.287 92.0117 29.7729 92.0117C25.2588 92.0117 21.5994 95.6718 21.5994 100.187C21.5994 104.702 25.2588 108.362 29.7729 108.362Z" fill="#FFB8B8"/>
<path d="M25.6113 104.473C25.6113 104.473 22.6908 110.54 18.6469 110.316C18.6469 110.316 11.0084 107.17 8.53712 115.709L5.84119 122.45L41.5623 128.517C41.5623 128.517 39.5403 116.158 34.8224 115.933C34.8224 115.933 29.4306 115.484 30.1046 113.462C30.7786 111.439 33.2498 106.72 33.2498 106.72L25.6113 104.473Z" fill="#FFB8B8"/>
<path d="M37.5184 135.483L32.1265 147.168L36.5701 166.054L58.2119 206.678C58.2119 206.678 48.245 215.622 45.7604 217.057C43.6053 218.301 25.6633 184.571 25.0081 177.619C24.7919 175.325 20.8576 221.801 20.8576 221.801C20.8576 221.801 6.02578 219.353 1.88406 218.539C1.88406 218.539 4.86801 197.4 6.62746 177.619C7.98368 162.371 6.75047 148.553 14.3783 142L13.7043 128.966L31.6772 128.292L37.5184 135.483Z" fill="#2F2E41"/>
<path d="M9.6029 237.629L17.8522 238.827C18.4914 239.065 19.1964 239.057 19.8299 238.803C20.4633 238.55 20.9798 238.07 21.2787 237.457V237.457C21.5215 236.959 21.6079 236.398 21.5265 235.85C21.4451 235.302 21.1998 234.791 20.8227 234.385L17.3213 230.613L14.8013 225.175C13.2942 223.635 12.2639 224.179 11.688 226.709L7.65951 225.444L6.60326 232.545C6.44519 233.608 6.65689 234.693 7.20294 235.618C7.74899 236.544 8.59625 237.253 9.6029 237.629V237.629Z" fill="#2F2E41"/>
<path d="M56.6224 230.198L64.9582 230.169C65.6255 230.31 66.3216 230.198 66.9109 229.854C67.5002 229.511 67.9405 228.96 68.1459 228.309V228.309C68.3128 227.781 68.3158 227.214 68.1547 226.684C67.9935 226.153 67.6757 225.684 67.2429 225.338L63.2248 222.123L59.9321 217.114C58.2149 215.813 57.276 216.503 57.0784 219.09L52.9076 218.431V225.611C52.9076 226.686 53.2766 227.728 53.9529 228.563C54.6291 229.397 55.5716 229.975 56.6224 230.198V230.198Z" fill="#2F2E41"/>
<path d="M25.6444 87.6201C24.2561 87.0132 22.604 87.2512 21.2636 87.9577C19.9232 88.6643 18.8523 89.791 17.915 90.9816C14.6875 95.1017 12.8055 100.115 12.5244 105.342C12.451 106.77 12.5198 108.28 13.2635 109.502C14.0807 110.845 15.5765 111.616 17.0581 112.141C22.0253 113.872 27.475 113.572 32.2224 111.306C29.7262 109.282 27.4164 107.038 25.321 104.601C24.9283 104.144 24.5177 103.557 24.7174 102.989C24.8432 102.713 25.0381 102.473 25.2834 102.294L30.0956 98.1141L29.9745 99.805C30.9315 99.7491 31.8512 99.4139 32.6198 98.8409C33.3884 98.2678 33.9723 97.4821 34.2993 96.5807C34.0672 97.0491 34.5102 97.6244 35.0221 97.7298C35.5341 97.8351 36.0523 97.624 36.5324 97.4174C37.6967 96.9163 38.9615 96.3195 39.478 95.1617C39.6406 94.7536 39.7184 94.3166 39.7067 93.8774C39.695 93.4382 39.5939 93.006 39.4098 92.6071C39.0362 91.8111 38.5031 91.1002 37.8436 90.5186C36.2251 89.0241 34.2559 87.9619 32.1182 87.4303C29.9805 86.8987 27.7433 86.9149 25.6135 87.4773" fill="#2F2E41"/>
<path d="M24.0116 148.187L27.6004 152.529C27.9635 152.968 28.4181 153.323 28.9324 153.568C29.4467 153.814 30.0084 153.944 30.5783 153.95C31.1482 153.957 31.7126 153.838 32.2321 153.604C32.7516 153.369 33.2137 153.024 33.5862 152.593C33.9871 152.129 34.2735 151.577 34.4222 150.982C34.5709 150.386 34.5779 149.765 34.4425 149.166C34.3071 148.568 34.0332 148.01 33.6427 147.536C33.2523 147.063 32.7563 146.688 32.1945 146.442L26.7705 144.062L11.9793 132.761L13.0621 121.681L4.54915 122.997L5.09625 136.26L24.0116 148.187Z" fill="#FFB8B8"/>
<path d="M46.2801 138.404C46.2801 138.404 42.782 125.59 40.9365 125.593C39.091 125.596 36.6197 125.371 36.6197 125.371C36.6197 125.371 33.6991 116.832 18.6469 119.529C3.59457 122.225 10.1097 117.057 5.84118 119.079C1.57261 121.102 -1.52588e-05 135.258 -1.52588e-05 135.258C-1.52588e-05 135.258 23.1401 127.618 28.0826 131.888C30.921 134.371 34.0077 136.554 37.2937 138.404C37.2937 138.404 35.0471 144.022 46.2801 138.404Z" fill="#2F2E41"/>
<path d="M126.501 229.495H35.7832V230.088H126.501V229.495Z" fill="#3F3D56"/>
<path d="M196.169 127.194C226.459 127.194 251.015 102.633 251.015 72.3365C251.015 42.0398 226.459 17.4794 196.169 17.4794C165.879 17.4794 141.324 42.0398 141.324 72.3365C141.324 102.633 165.879 127.194 196.169 127.194Z" fill="#E6E6E6"/>
<path d="M185.793 41.7944H95.0756V42.3875H185.793V41.7944Z" fill="#3F3D56"/>
<path d="M273.249 58.1033H95.0756V58.6964H273.249V58.1033Z" fill="#3F3D56"/>
<path d="M218.404 116.519C187.998 116.519 163.262 91.7768 163.262 61.3651C163.262 30.9533 187.998 6.21143 218.404 6.21143C248.809 6.21143 273.546 30.9533 273.546 61.3651C273.546 91.7768 248.809 116.519 218.404 116.519ZM218.404 6.80448C188.325 6.80448 163.855 31.2802 163.855 61.3651C163.855 91.4499 188.325 115.926 218.404 115.926C248.482 115.926 272.953 91.4499 272.953 61.3651C272.953 31.2802 248.482 6.80448 218.404 6.80448V6.80448Z" fill="#3F3D56"/>
<path d="M213.316 14.4825C217.315 14.4825 220.556 11.2405 220.556 7.24127C220.556 3.24203 217.315 0 213.316 0C209.318 0 206.077 3.24203 206.077 7.24127C206.077 11.2405 209.318 14.4825 213.316 14.4825Z" fill="#F5DF49"/>
<path d="M163.469 62.1694C166.056 62.1694 168.153 60.0716 168.153 57.4839C168.153 54.8961 166.056 52.7983 163.469 52.7983C160.882 52.7983 158.784 54.8961 158.784 57.4839C158.784 60.0716 160.882 62.1694 163.469 62.1694Z" fill="#EF7B97"/>
<path d="M275.301 68.2617C281.21 68.2617 286 63.4708 286 57.5609C286 51.651 281.21 46.8601 275.301 46.8601C269.393 46.8601 264.603 51.651 264.603 57.5609C264.603 63.4708 269.393 68.2617 275.301 68.2617Z" fill="#F5DF49"/>
<path d="M124.918 99.7831H92.4561V100.376H124.918C126.517 100.376 128.049 101.011 129.18 102.142C130.31 103.272 130.945 104.805 130.945 106.404C130.945 108.002 130.31 109.535 129.18 110.666C128.049 111.796 126.517 112.431 124.918 112.431H75.7974C74.1992 112.431 72.6664 111.796 71.5363 110.666C70.4062 109.535 69.7713 108.002 69.7713 106.404C69.7713 104.805 70.4062 103.272 71.5363 102.142C72.6664 101.011 74.1992 100.376 75.7974 100.376H77.633V99.7831H75.7974C74.0419 99.7831 72.3583 100.481 71.117 101.722C69.8757 102.964 69.1784 104.648 69.1784 106.404C69.1784 108.159 69.8757 109.843 71.117 111.085C72.3583 112.326 74.0419 113.024 75.7974 113.024H124.918C126.674 113.024 128.357 112.326 129.599 111.085C130.84 109.843 131.537 108.159 131.537 106.404C131.537 104.648 130.84 102.964 129.599 101.722C128.357 100.481 126.674 99.7831 124.918 99.7831Z" fill="#3F3D56"/>
<path d="M124.918 120.243H92.4561V120.836H124.918C126.517 120.836 128.049 121.471 129.18 122.602C130.31 123.732 130.945 125.265 130.945 126.864C130.945 128.462 130.31 129.995 129.18 131.126C128.049 132.256 126.517 132.891 124.918 132.891H75.7974C74.1992 132.891 72.6664 132.256 71.5363 131.126C70.4062 129.995 69.7713 128.462 69.7713 126.864C69.7713 125.265 70.4062 123.732 71.5363 122.602C72.6664 121.471 74.1992 120.836 75.7974 120.836H77.633V120.243H75.7974C74.0419 120.243 72.3583 120.941 71.117 122.182C69.8757 123.424 69.1784 125.108 69.1784 126.864C69.1784 128.62 69.8757 130.304 71.117 131.545C72.3583 132.787 74.0419 133.484 75.7974 133.484H124.918C126.674 133.484 128.357 132.787 129.599 131.545C130.84 130.304 131.537 128.62 131.537 126.864C131.537 125.108 130.84 123.424 129.599 122.182C128.357 120.941 126.674 120.243 124.918 120.243Z" fill="#3F3D56"/>
<path d="M124.918 140.704H92.4561V141.297H124.918C126.517 141.297 128.049 141.932 129.18 143.062C130.31 144.192 130.945 145.725 130.945 147.324C130.945 148.923 130.31 150.456 129.18 151.586C128.049 152.716 126.517 153.351 124.918 153.351H75.7974C74.1992 153.351 72.6664 152.716 71.5363 151.586C70.4062 150.456 69.7713 148.923 69.7713 147.324C69.7713 145.725 70.4062 144.192 71.5363 143.062C72.6664 141.932 74.1992 141.297 75.7974 141.297H77.633V140.704H75.7974C74.0419 140.704 72.3583 141.401 71.117 142.643C69.8757 143.884 69.1784 145.568 69.1784 147.324C69.1784 149.08 69.8757 150.764 71.117 152.005C72.3583 153.247 74.0419 153.944 75.7974 153.944H124.918C126.674 153.944 128.357 153.247 129.599 152.005C130.84 150.764 131.537 149.08 131.537 147.324C131.537 145.568 130.84 143.884 129.599 142.643C128.357 141.401 126.674 140.704 124.918 140.704V140.704Z" fill="#3F3D56"/>
<path d="M81.2972 98.2164C80.8347 98.2241 80.3939 98.4133 80.0696 98.7431C79.7453 99.0729 79.5636 99.5169 79.5636 99.9795C79.5636 100.442 79.7453 100.886 80.0696 101.216C80.3939 101.546 80.8347 101.735 81.2972 101.743H89.0306C89.4972 101.749 89.9472 101.57 90.282 101.245C90.6169 100.92 90.8092 100.475 90.8168 100.008C90.8245 99.5417 90.6469 99.091 90.3229 98.7551C89.9989 98.4192 89.555 98.2255 89.0885 98.2164C89.0692 98.216 89.0499 98.216 89.0306 98.2164H81.2972Z" fill="#F5DF49"/>
<path d="M81.2972 118.973C80.8347 118.981 80.3939 119.17 80.0696 119.5C79.7453 119.83 79.5636 120.274 79.5636 120.736C79.5636 121.199 79.7453 121.643 80.0696 121.973C80.3939 122.303 80.8347 122.492 81.2972 122.499H89.0306C89.4972 122.506 89.9472 122.327 90.282 122.001C90.6169 121.676 90.8092 121.232 90.8168 120.765C90.8245 120.298 90.6469 119.848 90.3229 119.512C89.9989 119.176 89.555 118.982 89.0885 118.973C89.0692 118.973 89.0499 118.973 89.0306 118.973H81.2972Z" fill="#EF7B97"/>
<path d="M81.2972 139.137C80.8347 139.144 80.3937 139.334 80.0693 139.663C79.7449 139.993 79.5632 140.437 79.5632 140.9C79.5632 141.363 79.7449 141.807 80.0693 142.137C80.3937 142.466 80.8347 142.656 81.2972 142.663H89.0306C89.4978 142.67 89.9487 142.492 90.2843 142.166C90.6199 141.841 90.8127 141.396 90.8204 140.929C90.828 140.462 90.6499 140.01 90.3252 139.674C90.0005 139.338 89.5556 139.145 89.0885 139.137C89.0692 139.136 89.0499 139.136 89.0306 139.137H81.2972Z" fill="#3F3D56"/>
<path d="M78.2298 104.64C77.7674 104.648 77.3265 104.837 77.0022 105.167C76.6779 105.497 76.4961 105.941 76.4961 106.404C76.4961 106.866 76.6779 107.31 77.0022 107.64C77.3265 107.97 77.7674 108.159 78.2298 108.167H122.428C122.66 108.171 122.89 108.13 123.106 108.045C123.322 107.96 123.519 107.833 123.686 107.672C123.853 107.511 123.986 107.319 124.079 107.106C124.171 106.893 124.22 106.664 124.224 106.433C124.228 106.201 124.186 105.97 124.101 105.755C124.015 105.539 123.888 105.342 123.727 105.176C123.565 105.009 123.373 104.876 123.16 104.784C122.947 104.693 122.718 104.644 122.486 104.64C122.467 104.64 122.447 104.64 122.428 104.64H78.2298Z" fill="#E6E6E6"/>
<path d="M78.2298 125.101C77.7674 125.108 77.3265 125.297 77.0022 125.627C76.6779 125.957 76.4961 126.401 76.4961 126.864C76.4961 127.326 76.6779 127.77 77.0022 128.1C77.3265 128.43 77.7674 128.619 78.2298 128.627H122.428C122.66 128.631 122.89 128.59 123.106 128.505C123.322 128.42 123.519 128.294 123.686 128.133C123.853 127.971 123.986 127.779 124.079 127.566C124.171 127.354 124.22 127.125 124.224 126.893C124.228 126.661 124.186 126.43 124.101 126.215C124.015 125.999 123.888 125.802 123.727 125.636C123.565 125.469 123.373 125.337 123.16 125.245C122.947 125.153 122.718 125.104 122.486 125.101C122.467 125.1 122.447 125.1 122.428 125.101H78.2298Z" fill="#E6E6E6"/>
<path d="M78.2298 145.561C77.7674 145.569 77.3265 145.758 77.0022 146.087C76.6779 146.417 76.4961 146.861 76.4961 147.324C76.4961 147.787 76.6779 148.231 77.0022 148.56C77.3265 148.89 77.7674 149.079 78.2298 149.087H122.428C122.66 149.091 122.89 149.05 123.106 148.965C123.322 148.88 123.519 148.754 123.686 148.593C123.853 148.432 123.986 148.239 124.079 148.027C124.171 147.814 124.22 147.585 124.224 147.353C124.228 147.121 124.186 146.891 124.101 146.675C124.015 146.459 123.888 146.263 123.727 146.096C123.565 145.93 123.373 145.797 123.16 145.705C122.947 145.613 122.718 145.564 122.486 145.561C122.467 145.561 122.447 145.561 122.428 145.561H78.2298Z" fill="#E6E6E6"/>
<path d="M123.135 211.794C122.674 208.823 121.776 205.936 120.468 203.228L120.277 202.834L118.861 204.404L119.91 202.065L119.842 201.93C118.916 200.096 117.89 198.316 116.768 196.596L116.56 196.277L116.283 196.585L116.477 196.151L116.38 196.005C114.99 193.921 113.923 192.603 113.912 192.59L113.611 192.218L113.417 192.661C113.381 192.742 109.853 200.873 109.386 208.907L109.379 209.032L111.753 211.902L109.332 210.382L109.336 210.934C109.343 211.878 109.407 212.821 109.528 213.758C109.635 214.563 109.76 215.35 109.905 216.117C110.134 216.124 110.356 216.193 110.549 216.318C110.381 215.46 110.237 214.579 110.116 213.674C110.022 212.951 109.963 212.217 109.94 211.485L114.623 214.426L109.985 208.819C110.408 202.027 113.028 195.183 113.764 193.377C114.159 193.889 114.904 194.884 115.795 196.212L114.175 199.824L116.485 197.263C117.486 198.822 118.408 200.43 119.248 202.082L116.754 207.644L120.127 203.903C121.305 206.437 122.12 209.124 122.549 211.886C123.139 216.346 123.024 220.63 122.224 223.95C121.458 227.13 120.109 229.085 118.521 229.314C118.194 229.359 117.861 229.339 117.542 229.255C117.286 229.437 116.978 229.531 116.665 229.523H116.578C117.071 229.797 117.623 229.945 118.186 229.955C118.325 229.955 118.464 229.945 118.602 229.925C120.469 229.657 121.959 227.588 122.799 224.101C123.617 220.706 123.737 216.338 123.135 211.794Z" fill="#3F3D56"/>
<path d="M117.911 229.721C115.469 229.721 111.948 228.377 108.456 225.931C107.942 225.568 107.451 225.174 106.986 224.75L106.595 224.392L108.074 223.966L106.105 223.894L106.022 223.807C102.331 219.941 100.034 214.479 100.011 214.425L99.8315 213.993L100.298 214.014C100.345 214.017 101.454 214.069 103.122 214.306L103.226 214.32V214.319L103.591 214.375C104.953 214.582 106.302 214.866 107.632 215.224L107.774 215.263L108.218 216.356L108.15 215.375L108.557 215.493C110.487 216.05 112.319 216.9 113.991 218.013C119.302 221.732 122.24 226.381 120.687 228.6C120.156 229.358 119.178 229.72 117.911 229.721ZM107.788 224.666C108.113 224.94 108.45 225.202 108.797 225.446C113.661 228.853 118.883 230.141 120.201 228.26C121.518 226.378 118.521 221.91 113.657 218.503C112.156 217.504 110.521 216.724 108.8 216.185L109.063 220.016L107.336 215.759C106.198 215.457 105.033 215.208 103.868 215.019L104.059 217.799L102.87 214.869C101.948 214.742 101.206 214.674 100.754 214.639C101.37 215.992 103.405 220.169 106.368 223.31L111.802 223.509L107.788 224.666Z" fill="#3F3D56"/>
</g>
<defs>
<clipPath id="clip0">
<rect width="286" height="239" fill="white"/>
</clipPath>
</defs>
</svg>
