<svg width="305" height="228" viewBox="0 0 305 228" fill="none" xmlns="http://www.w3.org/2000/svg">
<path d="M26.1014 224.261C40.5169 224.261 52.2029 223.367 52.2029 222.264C52.2029 221.161 40.5169 220.268 26.1014 220.268C11.686 220.268 0 221.161 0 222.264C0 223.367 11.686 224.261 26.1014 224.261Z" fill="#E6E6E6"/>
<path d="M82.406 228C96.8214 228 108.507 227.106 108.507 226.004C108.507 224.901 96.8214 224.007 82.406 224.007C67.9905 224.007 56.3045 224.901 56.3045 226.004C56.3045 227.106 67.9905 228 82.406 228Z" fill="#E6E6E6"/>
<path d="M280.879 0H149.169C148.401 0.000938125 147.665 0.307315 147.121 0.851931C146.578 1.39655 146.273 2.13494 146.272 2.90514V224.083C146.272 224.853 146.578 225.592 147.121 226.137C147.664 226.682 148.401 226.988 149.169 226.988H280.879C281.569 226.989 282.236 226.742 282.76 226.292C283.284 225.842 283.631 225.22 283.737 224.536C283.764 224.386 283.777 224.235 283.776 224.083V2.90514C283.775 2.13494 283.469 1.39655 282.926 0.851931C282.383 0.307315 281.647 0.000937136 280.879 0V0ZM282.617 224.083C282.617 224.545 282.434 224.988 282.108 225.315C281.782 225.642 281.34 225.826 280.879 225.826H149.169C148.708 225.826 148.266 225.642 147.94 225.315C147.614 224.988 147.431 224.545 147.431 224.083V2.90514C147.431 2.44306 147.615 2.0001 147.941 1.67336C148.266 1.34662 148.708 1.16275 149.169 1.16205H280.879C281.34 1.16275 281.781 1.34662 282.107 1.67336C282.433 2.0001 282.616 2.44306 282.617 2.90514V224.083Z" fill="#E6E6E6"/>
<path d="M159.598 16.3153C159.29 16.3156 158.996 16.4381 158.779 16.656C158.561 16.8738 158.439 17.1692 158.439 17.4773V65.5089C158.439 65.817 158.561 66.1124 158.779 66.3302C158.996 66.5481 159.29 66.6706 159.598 66.671H270.45C270.757 66.6706 271.052 66.5481 271.269 66.3302C271.486 66.1124 271.609 65.817 271.609 65.5089V17.4773C271.609 17.1692 271.486 16.8738 271.269 16.656C271.052 16.4381 270.757 16.3156 270.45 16.3152L159.598 16.3153Z" fill="#E6E6E6"/>
<path d="M113.295 53.8966C112.999 53.8969 112.714 54.0152 112.505 54.2255C112.295 54.4359 112.177 54.721 112.177 55.0184V101.388C112.177 101.685 112.295 101.97 112.505 102.18C112.714 102.391 112.999 102.509 113.295 102.509H220.311C220.608 102.509 220.892 102.391 221.102 102.18C221.311 101.97 221.429 101.685 221.43 101.388V55.0184C221.429 54.721 221.311 54.4359 221.102 54.2255C220.892 54.0152 220.608 53.8969 220.311 53.8966H113.295Z" fill="#EF7B97"/>
<path d="M58.8245 161.6C58.9653 165.073 56.7533 168.151 54.6821 170.918C53.7376 172.214 44.9599 180.996 42.3088 184.835C41.6667 185.765 25.9049 204.011 25.0971 205.701C24.9071 206.102 24.7506 206.517 24.629 206.944C24.1568 208.564 24.1361 210.308 24.1775 212.037V213.246C24.2604 215.883 24.3805 218.534 25.006 221.089C25.0971 221.463 25.2007 221.841 25.2545 222.219C25.0872 222.109 24.9293 221.985 24.7823 221.849L16.2158 215.472L15.6815 215.073C15.1347 213.486 14.6169 211.883 14.0328 210.317C13.6848 209.386 14.0577 208.323 14.6707 207.546C15.3349 206.811 16.0673 206.14 16.8579 205.544C17.4649 204.914 18.0062 204.223 18.4734 203.483C24.3846 194.855 41.0329 163.893 42.2466 157.662C43.8467 157.363 45.4861 157.342 47.0932 157.599L55.639 158.738C56.5627 158.862 57.5735 159.033 58.1741 159.743C58.5843 160.276 58.8123 160.927 58.8245 161.6V161.6Z" fill="#EFB7B9"/>
<path d="M95.3024 168.679C95.1204 169.974 94.6642 171.214 93.9644 172.318C93.0862 173.66 82.9995 199.678 79.8637 210.421C79.2879 212.394 79.5903 214.301 79.5282 214.961C79.4785 215.51 79.4329 216.058 79.3915 216.602C79.3335 217.279 79.2879 217.956 79.2382 218.629C79.1098 220.412 78.998 222.285 79.7477 223.905C80.0418 224.545 80.4851 225.098 80.6798 225.737C80.3875 225.586 80.1172 225.396 79.8762 225.172L71.3097 218.796C70.6112 216.811 70.0723 214.773 69.6983 212.701C69.4829 211.526 69.3793 210.176 70.1125 209.274C70.1547 209.219 70.2003 209.166 70.2492 209.116C70.4883 208.891 70.7557 208.698 71.0446 208.543C71.3095 208.397 71.5641 208.233 71.8068 208.053C71.9888 207.91 72.1529 207.745 72.2956 207.563C72.9998 206.69 73.2524 205.465 73.4637 204.314C74.2922 199.603 81.3094 170.698 81.1768 169.983C81.0319 169.281 77.0469 162.547 74.3129 161.052C77.1496 158.669 80.3852 156.809 83.8694 155.56C84.4834 155.273 85.163 155.157 85.8371 155.223C86.1977 155.303 86.5423 155.443 86.8561 155.639C88.7326 156.694 90.17 158.355 91.5453 160.017C93.5958 162.518 95.6462 165.459 95.3024 168.679Z" fill="#EFB7B9"/>
<path d="M91.5643 158.67C91.299 161.183 84.2604 163.406 75.3598 164.789C73.0612 165.146 67.4134 151.195 64.9511 151.43C61.9901 151.714 62.1968 166.156 59.2684 166.233C49.2993 166.497 42.8571 165.473 40.7745 162.509C39.6477 162.234 38.289 161.586 38.3429 160.432C38.3801 159.771 38.9021 159.185 38.8979 158.537C38.8979 157.407 42.1663 145.036 44.0925 139.166C44.573 137.708 44.921 136.212 45.4636 134.771C47.8082 128.274 48.8148 123.288 53.0981 117.88C53.7534 117.121 54.2923 116.268 54.697 115.35C55.0647 114.247 55.2562 113.093 55.2645 111.931L55.5007 107.864C61.851 107.565 68.019 107.685 74.2326 109.031C74.5697 109.021 74.897 109.146 75.1424 109.378C75.3879 109.61 75.5314 109.93 75.5413 110.268L75.5416 110.277C75.7818 111.765 75.9503 113.259 76.0469 114.76C76.0499 115.091 76.0972 115.421 76.1878 115.74C76.3508 116.144 76.5774 116.518 76.8588 116.849C80.4544 121.577 82.6582 127.235 84.398 132.901C86.1378 138.568 87.5214 144.392 89.7085 149.934C90.4625 151.845 91.4484 153.992 91.6472 156.04C92.4343 156.626 92.2603 157.951 91.5643 158.67Z" fill="#2F2E41"/>
<path d="M97.5998 90.5488C98.6934 89.6224 99.787 88.6919 100.789 87.6699C102.204 86.1663 103.511 84.5644 104.7 82.8759C105.967 81.1436 107.227 79.3697 108.014 77.3674C108.904 75.0742 109.178 72.4654 110.727 70.5627C110.902 70.3155 111.145 70.1249 111.427 70.0144C112.309 69.736 112.968 70.8452 113.138 71.7633C113.966 76.2582 111.99 80.7448 110.068 84.8907C109.435 86.2574 108.772 87.6616 107.674 88.696C107.072 89.2123 106.443 89.6962 105.789 90.1458C104.819 90.937 103.926 91.8189 103.122 92.7796C101.741 94.3527 100.428 95.9825 99.1822 97.6691C97.6371 99.7463 96.1872 101.923 94.3563 103.755C92.5254 105.587 90.2346 107.079 87.6705 107.44C88.4037 107.34 88.1634 103.024 88.0847 102.48C87.9729 101.69 87.4343 100.76 87.4178 99.9872C87.3971 99.04 87.7823 98.903 88.5611 98.2383L97.5998 90.5488Z" fill="#EFB7B9"/>
<path d="M66.855 63.3634C66.855 63.3634 64.3695 75.8262 61.4699 77.9033C58.5702 79.9804 77.211 82.473 77.211 82.473C77.211 82.473 77.6252 72.5028 82.5961 67.9331C87.5669 63.3634 66.855 63.3634 66.855 63.3634Z" fill="#EFB7B9"/>
<path d="M83.5571 112.853C84.1717 113.046 84.815 113.13 85.4584 113.102C87.6333 113.078 89.7767 112.578 91.7383 111.636C91.9221 111.564 92.0847 111.447 92.2106 111.295C92.2837 111.136 92.3234 110.963 92.3269 110.788C92.3305 110.613 92.2979 110.439 92.2313 110.277C91.0631 105.541 93.3166 100.17 91.0797 95.8412C88.6481 96.6347 85.9804 97.5029 83.5488 98.2756C83.1759 98.4275 82.7743 98.4955 82.3724 98.475C81.8907 98.3747 81.4495 98.1332 81.1048 97.7813C78.4702 95.4964 76.8091 92.3143 75.3054 89.1695C73.8017 86.0248 72.327 82.7803 69.9576 80.2213C67.5882 77.6622 65.372 76.308 61.9089 76.6777C60.6797 76.8463 59.5512 77.4504 58.7276 78.381C56.7724 80.4913 56.383 83.7026 57.0706 86.5025C57.7583 89.3025 59.3365 91.7826 60.9769 94.1463C63.1144 97.2288 65.4134 100.266 68.3835 102.555C69.9902 103.722 71.6578 104.802 73.3792 105.791" fill="#E6E6E6"/>
<path d="M76.5896 72.7105C83.4529 72.7105 89.0168 67.1307 89.0168 60.2478C89.0168 53.3648 83.4529 47.785 76.5896 47.785C69.7262 47.785 64.1624 53.3648 64.1624 60.2478C64.1624 67.1307 69.7262 72.7105 76.5896 72.7105Z" fill="#EFB7B9"/>
<path d="M81.5604 96.1155C77.8246 100.533 77.035 106.177 76.2706 111.748C72.5176 110.473 68.3586 112.612 64.4731 111.831C62.5216 111.179 60.457 110.939 58.4086 111.125C56.9712 110.988 55.5462 110.082 54.1751 110.543C51.8957 111.991 54.1154 103.022 53.98 100.415C52.7853 56.4415 88.3503 77.8336 81.5604 96.1155Z" fill="#E6E6E6"/>
<path d="M102.571 92.2105C103.664 91.2841 104.758 90.3536 105.76 89.3316C107.175 87.828 108.482 86.2261 109.671 84.5376C110.938 82.8053 112.198 81.0314 112.985 79.0291C113.875 76.736 114.149 74.1271 115.698 72.2244C115.873 71.9772 116.116 71.7866 116.398 71.6761C117.28 71.3977 117.939 72.5069 118.109 73.425C118.937 77.9199 116.961 82.4065 115.039 86.5524C114.405 87.9192 113.743 89.3233 112.645 90.3577C112.043 90.874 111.413 91.3579 110.76 91.8075C109.79 92.5987 108.896 93.4806 108.092 94.4413C106.712 96.0144 105.399 97.6442 104.153 99.3309C102.608 101.408 101.158 103.585 99.3272 105.417C97.4962 107.249 95.2055 108.74 92.6413 109.102C93.3745 109.002 93.1343 104.686 93.0556 104.141C92.9437 103.352 92.4052 102.422 92.3887 101.649C92.368 100.702 92.7532 100.565 93.532 99.9L102.571 92.2105Z" fill="#EFB7B9"/>
<path opacity="0.1" d="M80.3177 96.5309L80.2887 96.5849C79.5721 97.9184 78.4992 99.0401 77.7619 100.369C76.9334 101.873 76.5481 103.589 76.2167 105.28C75.9875 106.415 75.7763 107.552 75.583 108.69C74.0954 107.835 72.6571 106.896 71.2749 105.878C68.3048 103.589 66.0058 100.552 63.8683 97.4656C62.2113 95.1018 60.6372 92.6218 59.962 89.8259C59.2868 87.0301 59.6803 83.8148 61.619 81.7044C62.4424 80.7729 63.5707 80.1673 64.8003 79.997C68.2634 79.6273 70.4505 80.9691 72.82 83.524C75.1895 86.0788 76.6558 89.3399 78.1678 92.4722C78.8389 93.8306 79.5265 95.2223 80.3177 96.5309Z" fill="black"/>
<path d="M66.8799 78.3395C65.6506 78.508 64.5221 79.1122 63.6985 80.0427C61.7433 82.1531 61.3539 85.3643 62.0415 88.1643C62.7292 90.9642 64.3074 93.4443 65.9478 95.8081C68.0853 98.8905 70.3843 101.927 73.3544 104.216C74.9611 105.383 76.6287 106.463 78.3501 107.452C81.2105 109.219 83.9594 108.669 86.5811 110.776C87.1558 111.298 87.814 111.719 88.528 112.022C89.1426 112.215 89.7859 112.299 90.4294 112.271C92.6042 112.248 94.7476 110.916 96.7092 109.974C96.893 109.903 97.0556 109.785 97.1815 109.633C97.2547 109.474 97.2943 109.302 97.2978 109.127C97.3014 108.951 97.2688 108.777 97.2022 108.616C96.034 103.88 98.2875 101.832 96.0506 97.503C93.619 98.2964 90.9513 99.1646 88.5197 99.9373C88.1468 100.089 87.7452 100.157 87.3433 100.137C86.8616 100.036 86.4205 99.7949 86.0757 99.443C83.4412 97.1581 81.7801 93.976 80.2763 90.8312C78.7726 87.6865 77.298 84.442 74.9285 81.883C72.5591 79.324 70.3429 77.9698 66.8799 78.3395Z" fill="#E6E6E6"/>
<path d="M84.1842 225.887C83.6304 226.451 82.9102 226.822 82.13 226.945C81.3497 227.068 80.5509 226.936 79.8513 226.568C79.5591 226.417 79.2887 226.227 79.0477 226.003L70.4812 219.626L67.0845 217.096C66.7271 216.763 66.4412 216.361 66.244 215.913C66.0468 215.465 65.9425 214.982 65.9375 214.493C65.9325 214.004 66.0268 213.518 66.2147 213.067C66.4026 212.615 66.6802 212.207 67.0306 211.866L69.2841 210.105L70.2161 209.374L71.4671 208.393L72.5607 207.538L79.5779 211.484L79.698 211.717L85.0086 221.986C85.2567 222.647 85.3108 223.366 85.1648 224.057C85.0187 224.748 84.6785 225.383 84.1842 225.887V225.887Z" fill="#2F2E41"/>
<path d="M29.0904 222.563C28.5365 223.128 27.8163 223.499 27.0361 223.622C26.2559 223.744 25.457 223.612 24.7574 223.245C24.6456 223.187 24.5338 223.12 24.4261 223.05C24.2587 222.94 24.1008 222.816 23.9538 222.68L15.3873 216.303L14.853 215.904L11.9906 213.773C11.6333 213.44 11.3473 213.037 11.1502 212.59C10.953 212.142 10.8487 211.659 10.8437 211.17C10.8386 210.68 10.9329 210.195 11.1209 209.744C11.3088 209.292 11.5864 208.883 11.9368 208.543L14.1902 206.782L15.1223 206.05L16.3733 205.07L17.4669 204.214L17.645 204.314L23.8006 207.774L24.4841 208.161L24.6042 208.393L29.9147 218.663C30.1628 219.324 30.217 220.043 30.0709 220.734C29.9249 221.425 29.5846 222.06 29.0904 222.563V222.563Z" fill="#2F2E41"/>
<path d="M88.2903 49.624C83.4784 44.1563 78.0525 41.5413 71.5472 43.9424C61.1097 40.429 47.3896 64.5742 55.8379 73.3306L70.1455 74.527L74.5265 66.6158L72.9763 74.8104L84.4206 75.9559C78.5824 66.8525 80.4551 58.1018 88.2903 49.624Z" fill="#2F2E41"/>
<path d="M142.191 89.0926C148.188 89.0926 153.05 84.2172 153.05 78.203C153.05 72.1888 148.188 67.3133 142.191 67.3133C136.194 67.3133 131.333 72.1888 131.333 78.203C131.333 84.2172 136.194 89.0926 142.191 89.0926Z" fill="white"/>
<path d="M166.699 76.7541C166.366 76.7595 166.048 76.8961 165.814 77.1343C165.581 77.3724 165.45 77.6932 165.45 78.0273C165.45 78.3614 165.581 78.6822 165.814 78.9203C166.048 79.1585 166.366 79.2951 166.699 79.3005H200.983C201.32 79.3061 201.645 79.1772 201.887 78.9424C202.129 78.7075 202.268 78.3859 202.274 78.0482C202.279 77.7105 202.151 77.3845 201.917 77.1418C201.682 76.8991 201.362 76.7596 201.025 76.7541C201.011 76.7538 200.997 76.7538 200.983 76.7541H166.699Z" fill="white"/>
<path d="M166.699 69.3772C166.366 69.3827 166.048 69.5193 165.814 69.7574C165.581 69.9956 165.45 70.3163 165.45 70.6504C165.45 70.9845 165.581 71.3053 165.814 71.5434C166.048 71.7816 166.366 71.9182 166.699 71.9237H183.82C184.156 71.9289 184.481 71.8 184.723 71.5652C184.965 71.3303 185.104 71.0088 185.109 70.6713C185.115 70.3338 184.986 70.0079 184.752 69.7653C184.518 69.5226 184.198 69.383 183.861 69.3772C183.847 69.377 183.834 69.377 183.82 69.3772H166.699Z" fill="white"/>
<path d="M166.699 84.4823C166.366 84.4878 166.048 84.6243 165.814 84.8625C165.581 85.1007 165.45 85.4214 165.45 85.7555C165.45 86.0896 165.581 86.4103 165.814 86.6485C166.048 86.8867 166.366 87.0232 166.699 87.0287H200.983C201.15 87.0316 201.316 87.0015 201.471 86.9401C201.626 86.8787 201.768 86.7872 201.888 86.6709C202.008 86.5546 202.104 86.4158 202.17 86.2623C202.236 86.1088 202.272 85.9437 202.275 85.7764C202.277 85.6091 202.247 85.4429 202.186 85.2874C202.125 85.1318 202.033 84.9898 201.917 84.8696C201.801 84.7495 201.663 84.6534 201.51 84.5869C201.356 84.5205 201.192 84.4849 201.025 84.4823C201.011 84.4821 200.997 84.4821 200.983 84.4823H166.699Z" fill="white"/>
<path d="M177.092 120.513C178.586 120.513 179.796 119.299 179.796 117.801C179.796 116.304 178.586 115.09 177.092 115.09C175.599 115.09 174.389 116.304 174.389 117.801C174.389 119.299 175.599 120.513 177.092 120.513Z" fill="#E6E6E6"/>
<path d="M188.235 116.397C187.868 116.404 187.518 116.554 187.26 116.817C187.003 117.079 186.858 117.433 186.858 117.801C186.858 118.17 187.003 118.523 187.26 118.786C187.518 119.048 187.868 119.199 188.235 119.205H254.236C254.606 119.21 254.963 119.067 255.229 118.808C255.494 118.549 255.647 118.196 255.653 117.824C255.659 117.453 255.518 117.094 255.261 116.827C255.004 116.559 254.652 116.405 254.282 116.397C254.267 116.397 254.251 116.397 254.236 116.397H188.235Z" fill="#E6E6E6"/>
<path d="M177.092 133.683C178.586 133.683 179.796 132.469 179.796 130.971C179.796 129.474 178.586 128.26 177.092 128.26C175.599 128.26 174.389 129.474 174.389 130.971C174.389 132.469 175.599 133.683 177.092 133.683Z" fill="#E6E6E6"/>
<path d="M188.235 129.567C187.868 129.574 187.518 129.724 187.26 129.987C187.003 130.249 186.858 130.603 186.858 130.971C186.858 131.34 187.003 131.693 187.26 131.956C187.518 132.218 187.868 132.369 188.235 132.375H254.236C254.606 132.38 254.963 132.237 255.229 131.978C255.495 131.719 255.647 131.366 255.653 130.994C255.659 130.623 255.519 130.264 255.261 129.997C255.004 129.729 254.652 129.575 254.282 129.567C254.267 129.567 254.251 129.567 254.236 129.567H188.235Z" fill="#E6E6E6"/>
<path d="M177.092 146.853C178.586 146.853 179.796 145.639 179.796 144.141C179.796 142.644 178.586 141.43 177.092 141.43C175.599 141.43 174.389 142.644 174.389 144.141C174.389 145.639 175.599 146.853 177.092 146.853Z" fill="#E6E6E6"/>
<path d="M188.235 142.737C187.868 142.743 187.518 142.894 187.26 143.157C187.003 143.419 186.858 143.773 186.858 144.141C186.858 144.51 187.003 144.863 187.26 145.126C187.518 145.388 187.868 145.539 188.235 145.545H254.236C254.606 145.55 254.963 145.407 255.229 145.148C255.495 144.889 255.647 144.536 255.653 144.164C255.659 143.793 255.519 143.434 255.261 143.167C255.004 142.899 254.652 142.745 254.282 142.737C254.267 142.737 254.251 142.737 254.236 142.737H188.235Z" fill="#E6E6E6"/>
<path d="M177.092 160.023C178.586 160.023 179.796 158.809 179.796 157.311C179.796 155.814 178.586 154.6 177.092 154.6C175.599 154.6 174.389 155.814 174.389 157.311C174.389 158.809 175.599 160.023 177.092 160.023Z" fill="#E6E6E6"/>
<path d="M188.235 155.907C187.868 155.913 187.518 156.064 187.26 156.327C187.003 156.589 186.858 156.943 186.858 157.311C186.858 157.679 187.003 158.033 187.26 158.296C187.518 158.558 187.868 158.709 188.235 158.715H254.236C254.42 158.719 254.603 158.686 254.775 158.619C254.947 158.551 255.104 158.451 255.236 158.322C255.369 158.194 255.475 158.041 255.549 157.871C255.622 157.702 255.662 157.519 255.665 157.334C255.668 157.149 255.634 156.966 255.566 156.794C255.499 156.622 255.397 156.465 255.269 156.333C255.14 156.2 254.987 156.094 254.818 156.021C254.648 155.948 254.466 155.909 254.282 155.907C254.267 155.907 254.251 155.907 254.236 155.907H188.235Z" fill="#E6E6E6"/>
<path d="M177.092 173.193C178.586 173.193 179.796 171.979 179.796 170.481C179.796 168.984 178.586 167.77 177.092 167.77C175.599 167.77 174.389 168.984 174.389 170.481C174.389 171.979 175.599 173.193 177.092 173.193Z" fill="#E6E6E6"/>
<path d="M188.235 169.077C187.868 169.083 187.518 169.234 187.26 169.497C187.003 169.759 186.858 170.113 186.858 170.481C186.858 170.849 187.003 171.203 187.26 171.466C187.518 171.728 187.868 171.879 188.235 171.885H254.236C254.606 171.89 254.963 171.747 255.229 171.488C255.494 171.229 255.647 170.875 255.653 170.504C255.659 170.133 255.518 169.774 255.261 169.507C255.004 169.239 254.652 169.085 254.282 169.077C254.267 169.077 254.251 169.077 254.236 169.077H188.235Z" fill="#E6E6E6"/>
<path d="M177.092 186.363C178.586 186.363 179.796 185.149 179.796 183.651C179.796 182.154 178.586 180.94 177.092 180.94C175.599 180.94 174.389 182.154 174.389 183.651C174.389 185.149 175.599 186.363 177.092 186.363Z" fill="#E6E6E6"/>
<path d="M188.235 182.247C187.868 182.253 187.518 182.404 187.26 182.667C187.003 182.929 186.858 183.283 186.858 183.651C186.858 184.019 187.003 184.373 187.26 184.635C187.518 184.898 187.868 185.049 188.235 185.055H254.236C254.606 185.06 254.963 184.917 255.229 184.658C255.494 184.399 255.647 184.045 255.653 183.674C255.659 183.303 255.518 182.944 255.261 182.677C255.004 182.409 254.652 182.255 254.282 182.247C254.267 182.247 254.251 182.247 254.236 182.247H188.235Z" fill="#E6E6E6"/>
<path d="M177.092 199.532C178.586 199.532 179.796 198.318 179.796 196.821C179.796 195.324 178.586 194.11 177.092 194.11C175.599 194.11 174.389 195.324 174.389 196.821C174.389 198.318 175.599 199.532 177.092 199.532Z" fill="#E6E6E6"/>
<path d="M188.235 195.417C187.868 195.423 187.518 195.574 187.26 195.837C187.003 196.099 186.858 196.453 186.858 196.821C186.858 197.189 187.003 197.543 187.26 197.805C187.518 198.068 187.868 198.219 188.235 198.225H254.236C254.606 198.23 254.963 198.087 255.229 197.828C255.495 197.569 255.647 197.215 255.653 196.844C255.659 196.473 255.519 196.114 255.261 195.846C255.004 195.579 254.652 195.425 254.282 195.417C254.267 195.417 254.251 195.417 254.236 195.417H188.235Z" fill="#E6E6E6"/>
<path d="M305 177.481C304.942 178.91 303.501 208.414 283.737 224.536C282.911 225.21 282.052 225.859 281.161 226.484L280.489 225.826H280.879C281.34 225.826 281.782 225.642 282.108 225.315C282.434 224.988 282.617 224.545 282.617 224.083V165.926C283.03 163.695 283.42 161.502 283.776 159.368C285.703 147.767 286.595 137.967 285.151 133.896C285.777 135.468 298.337 167.634 291.516 200.408C298.272 191.131 304.683 181.393 305 177.481Z" fill="#E6E6E6"/>
</svg>
