<svg width="271" height="236" viewBox="0 0 271 236" fill="none" xmlns="http://www.w3.org/2000/svg">
<path d="M121.988 236C163.24 236 196.681 234.319 196.681 232.245C196.681 230.171 163.24 228.49 121.988 228.49C80.7352 228.49 47.2936 230.171 47.2936 232.245C47.2936 234.319 80.7352 236 121.988 236Z" fill="#E6E6E6"/>
<path d="M37.0669 74.1627C57.5383 74.1627 74.1337 57.5608 74.1337 37.0813C74.1337 16.6019 57.5383 0 37.0669 0C16.5954 0 0 16.6019 0 37.0813C0 57.5608 16.5954 74.1627 37.0669 74.1627Z" fill="#E6E6E6"/>
<path d="M37.0669 67.9824C54.1264 67.9824 67.9559 54.1475 67.9559 37.0813C67.9559 20.0151 54.1264 6.18021 37.0669 6.18021C20.0073 6.18021 6.17781 20.0151 6.17781 37.0813C6.17781 54.1475 20.0073 67.9824 37.0669 67.9824Z" fill="#7FD5C1"/>
<path d="M135.5 74.1627C155.971 74.1627 172.567 57.5608 172.567 37.0813C172.567 16.6019 155.971 0 135.5 0C115.029 0 98.4331 16.6019 98.4331 37.0813C98.4331 57.5608 115.029 74.1627 135.5 74.1627Z" fill="#E6E6E6"/>
<path d="M135.5 67.9824C152.56 67.9824 166.389 54.1475 166.389 37.0813C166.389 20.0151 152.56 6.18021 135.5 6.18021C118.44 6.18021 104.611 20.0151 104.611 37.0813C104.611 54.1475 118.44 67.9824 135.5 67.9824Z" fill="white"/>
<path d="M233.933 74.1627C254.405 74.1627 271 57.5608 271 37.0813C271 16.6019 254.405 0 233.933 0C213.462 0 196.866 16.6019 196.866 37.0813C196.866 57.5608 213.462 74.1627 233.933 74.1627Z" fill="#E6E6E6"/>
<path d="M233.933 67.9824C250.993 67.9824 264.822 54.1475 264.822 37.0813C264.822 20.0151 250.993 6.18021 233.933 6.18021C216.874 6.18021 203.044 20.0151 203.044 37.0813C203.044 54.1475 216.874 67.9824 233.933 67.9824Z" fill="white"/>
<path d="M34.2019 49.7776L25.203 38.203L30.4361 34.1308L34.697 39.6115L49.0912 24.4112L53.9042 28.973L34.2019 49.7776Z" fill="white"/>
<path d="M102.749 44.6426C100.314 38.761 99.9192 33.2099 103.351 28.2791C103.412 26.6223 103.805 24.9946 104.506 23.4925C105.208 21.9905 106.204 20.6447 107.435 19.5351C108.667 18.4254 110.108 17.5744 111.675 17.0326C113.241 16.4908 114.9 16.2692 116.554 16.381L118.791 16.5322C121.101 16.6823 123.322 17.4799 125.2 18.8336C127.078 20.1874 128.537 22.0427 129.41 24.1872C133.582 34.5387 133.713 48.2964 132.672 63.0425H102.072C103.889 56.1463 104.822 49.6739 102.749 44.6426Z" fill="#2F2E41"/>
<path d="M63.2315 62.6883L55.145 59.0544C54.3392 58.6923 53.6207 58.1611 53.0381 57.497C52.4555 56.8328 52.0225 56.051 51.7683 55.2048C51.5142 54.3585 51.4448 53.4675 51.565 52.592C51.6852 51.7166 51.9921 50.8773 52.4649 50.1309C52.9878 49.3055 53.6994 48.6163 54.5409 48.12C55.3824 47.6238 56.3297 47.3348 57.3048 47.2769C58.2799 47.219 59.2548 47.3938 60.1491 47.7869C61.0434 48.18 61.8315 48.7802 62.4483 49.5379L66.1842 54.1268L83.6011 69.5799L95.1787 61.8507L100.426 70.7505L81.6454 82.0993L63.2315 62.6883Z" fill="#9F616A"/>
<path d="M99.5826 73.3684L93.1983 61.1473L118.058 50.07L118.273 52.4076C118.471 54.5587 118.104 56.7242 117.208 58.6895C116.311 60.6548 114.917 62.3515 113.163 63.6116L99.5826 73.3684Z" fill="#7FD5C1"/>
<path d="M131.798 49.3398L106.443 70.3312L104.986 68.2904L111.98 55.7539L115.186 54.2961C115.954 51.0407 113.993 46.6751 111.398 42.0511L123.638 40.3018C124.229 44.2733 126.919 47.2993 131.798 49.3398Z" fill="#9F616A"/>
<path d="M162.398 194.239L158.173 200.507L124.512 181.411L129.175 158.379L162.398 194.239Z" fill="#2F2E41"/>
<path d="M117.955 224.123L111.106 221.061L109.357 140.886L102.8 97.2994L128.301 92.4889L133.546 103.859C146.438 121.547 127.645 175.743 117.955 224.123Z" fill="#2F2E41"/>
<path d="M118.507 223.033L119.912 226.093C120.176 226.668 120.302 227.296 120.281 227.929C120.259 228.561 120.09 229.18 119.788 229.735C119.485 230.291 119.057 230.768 118.537 231.129C118.018 231.489 117.421 231.724 116.795 231.813L98.216 234.469C97.3026 234.599 96.3728 234.394 95.5986 233.892C94.8244 233.39 94.2582 232.624 94.0047 231.737C93.7713 230.92 93.817 230.048 94.1345 229.26C94.452 228.471 95.0232 227.812 95.7577 227.385L111.366 219.569L118.507 223.033Z" fill="#2F2E41"/>
<path d="M161.529 193.054L164.885 192.808C165.516 192.762 166.149 192.863 166.734 193.105C167.318 193.346 167.838 193.721 168.253 194.199C168.667 194.677 168.964 195.245 169.12 195.858C169.276 196.472 169.287 197.113 169.152 197.731L165.138 216.071C164.941 216.973 164.424 217.773 163.683 218.323C162.941 218.872 162.026 219.135 161.106 219.062V219.062C160.26 218.995 159.459 218.647 158.832 218.074C158.205 217.501 157.787 216.734 157.644 215.897L155.787 198.535L161.529 193.054Z" fill="#2F2E41"/>
<path d="M115.769 46.1328C122.207 46.1328 127.426 40.9116 127.426 34.4709C127.426 28.0302 122.207 22.809 115.769 22.809C109.331 22.809 104.112 28.0302 104.112 34.4709C104.112 40.9116 109.331 46.1328 115.769 46.1328Z" fill="#9F616A"/>
<path d="M127.718 94.2381L102.363 99.486L101.78 82.5762C98.1088 78.6877 106.672 63.1142 109.649 55.7539L113.438 54.5877L107.026 66.2496L129.466 47.8821L133.838 49.0483L135.004 70.3312L127.718 94.2381Z" fill="#7FD5C1"/>
<path d="M129.466 104.442L123.968 111.399C123.42 112.092 122.73 112.659 121.944 113.062C121.157 113.465 120.294 113.694 119.412 113.734C118.529 113.774 117.649 113.623 116.829 113.293C116.01 112.962 115.272 112.459 114.664 111.818V111.818C113.991 111.109 113.497 110.251 113.222 109.313C112.946 108.375 112.898 107.386 113.08 106.426C113.262 105.466 113.67 104.563 114.269 103.791C114.869 103.02 115.643 102.402 116.528 101.989L121.889 99.486L141.124 86.3664L136.461 73.2467L146.37 70.3312L152.781 91.3227L129.466 104.442Z" fill="#9F616A"/>
<path d="M130.486 60.7102H109.366C110.16 56.7165 112.287 53.0934 118.105 50.4957C122.348 42.384 124.16 35.0265 118.105 30.1103C111.189 28.5164 108.51 25.6219 109.366 21.6428L121.747 19.602C131.929 28.6734 132.045 44.1582 130.486 60.7102Z" fill="#2F2E41"/>
<path d="M148.701 71.7889L135.295 74.996L130.632 48.1736L132.951 48.536C135.084 48.8695 137.093 49.755 138.779 51.1048C140.465 52.4545 141.769 54.2216 142.562 56.2309L148.701 71.7889Z" fill="#7FD5C1"/>
</svg>
